<svg xmlns="http://www.w3.org/2000/svg" xmlns:xlink="http://www.w3.org/1999/xlink" width="344" height="176" viewBox="0 0 258 132"><g id="graph0" class="graph" transform="scale(1 1) rotate(0) translate(4 128)"><title>Sync Files</title><polygon fill="#fff" stroke="none" points="-4 4 -4 -128 254 -128 254 4 -4 4"/><g id="node1" class="node"><title>my_model</title><polygon fill="none" stroke="#000" points="104 -87.5 104 -123.5 178 -123.5 178 -87.5 104 -87.5"/><text x="141" y="-101.8" font-family="monospace" font-size="14" text-anchor="middle">MyModel</text></g><g id="node2" class="node"><title>init_server</title><polygon fill="none" stroke="#000" points="0 -.5 0 -36.5 140 -36.5 140 -.5 0 -.5"/><text x="70" y="-14.8" font-family="monospace" font-size="14" text-anchor="middle">init.server.lua</text></g><g id="edge1" class="edge"><title>my_model-&gt;init_server</title><path fill="none" stroke="#000" d="M126.632,-87.299C116.335,-74.9713 102.308,-58.1787 90.7907,-44.3902"/><polygon fill="#000" stroke="#000" points="93.444 -42.106 84.347 -36.675 88.071 -46.594 93.444 -42.106"/></g><g id="node3" class="node"><title>foo</title><polygon fill="none" stroke="#000" points="176 -.5 176 -36.5 250 -36.5 250 -.5 176 -.5"/><text x="213" y="-14.8" font-family="monospace" font-size="14" text-anchor="middle">foo.lua</text></g><g id="edge2" class="edge"><title>my_model-&gt;foo</title><path fill="none" stroke="#000" d="M155.57,-87.299C166.013,-74.9713 180.237,-58.1787 191.917,-44.3902"/><polygon fill="#000" stroke="#000" points="194.659 -46.568 198.451 -36.675 189.317 -42.044 194.659 -46.568"/></g></g></svg>