<svg xmlns="http://www.w3.org/2000/svg" xmlns:xlink="http://www.w3.org/1999/xlink" width="520" height="176" viewBox="0 0 390 132"><g id="graph0" class="graph" transform="scale(1 1) rotate(0) translate(4 128)"><title>Sync Files</title><polygon fill="#fff" stroke="none" points="-4 4 -4 -128 386 -128 386 4 -4 4"/><g id="node1" class="node"><title>model</title><polygon fill="none" stroke="#000" points="75 -87.5 75 -123.5 273 -123.5 273 -87.5 75 -87.5"/><text x="174" y="-101.8" font-family="monospace" font-size="14" text-anchor="middle">My Cool Model (Folder)</text></g><g id="node2" class="node"><title>root_part</title><polygon fill="none" stroke="#000" points="0 -.5 0 -36.5 140 -36.5 140 -.5 0 -.5"/><text x="70" y="-14.8" font-family="monospace" font-size="14" text-anchor="middle">RootPart (Part)</text></g><g id="edge1" class="edge"><title>model-&gt;root_part</title><path fill="none" stroke="#000" d="M152.954,-87.299C137.448,-74.6257 116.168,-57.2335 99.0438,-43.2377"/><polygon fill="#000" stroke="#000" points="100.972 -40.294 91.015 -36.675 96.543 -45.714 100.972 -40.294"/></g><g id="node3" class="node"><title>send_money</title><polygon fill="none" stroke="#000" points="176 -.5 176 -36.5 382 -36.5 382 -.5 176 -.5"/><text x="279" y="-14.8" font-family="monospace" font-size="14" text-anchor="middle">SendMoney (RemoteEvent)</text></g><g id="edge2" class="edge"><title>model-&gt;send_money</title><path fill="none" stroke="#000" d="M195.248,-87.299C210.904,-74.6257 232.388,-57.2335 249.677,-43.2377"/><polygon fill="#000" stroke="#000" points="252.213 -45.688 257.783 -36.675 247.809 -40.247 252.213 -45.688"/></g></g></svg>